<?xml version="1.0" encoding="utf-8"?>
<!-- Generator: Adobe Illustrator 25.2.3, SVG Export Plug-In . SVG Version: 6.00 Build 0)  -->
<svg version="1.1" id="Lager_1" xmlns="http://www.w3.org/2000/svg" xmlns:xlink="http://www.w3.org/1999/xlink" x="0px" y="0px"
	 viewBox="0 0 254.9 37.5" style="enable-background:new 0 0 254.9 37.5;" xml:space="preserve">
<style type="text/css">
	.st0{fill:#FFFFFF;}
	.st1{fill:#006321;}
</style>
<g>
	<path class="st0" d="M212.7,22.6c0,0.7-0.2,1.1-1.3,1.2l-6,0.4c0.4-3.2,1.7-6.1,4.4-6.1C211.8,18.2,212.7,19.6,212.7,22.6
		 M216.8,23.5c0-4.9-3.6-6.4-6.3-6.4c-6,0-9,4.7-9,10.7c0,6.4,3.4,9.5,8.3,9.5c5,0,7-3.6,7-5.6c0-0.2-0.1-0.4-0.3-0.4
		c-0.1,0-0.3,0.1-0.4,0.3c-1.2,2.5-2.7,3.2-5,3.2c-3.6,0-5.8-3.6-5.8-9.8h9.4C216.2,25.1,216.8,24.7,216.8,23.5"/>
	<path class="st0" d="M195.1,22.6c0,0.7-0.2,1.1-1.3,1.2l-6,0.4c0.4-3.2,1.7-6.1,4.4-6.1C194.2,18.2,195.1,19.6,195.1,22.6
		 M199.2,23.5c0-4.9-3.6-6.4-6.3-6.4c-6,0-9,4.7-9,10.7c0,6.4,3.4,9.5,8.3,9.5c5,0,7-3.6,7-5.6c0-0.2-0.1-0.4-0.3-0.4
		c-0.1,0-0.3,0.1-0.4,0.3c-1.2,2.5-2.7,3.2-5,3.2c-3.6,0-5.8-3.6-5.8-9.8h9.4C198.6,25.1,199.2,24.7,199.2,23.5"/>
	<path class="st0" d="M183.3,19.8c0-1.8-1.1-2.6-2.8-2.6c-1.8,0-3.8,1-4.8,5.5c0-2.7-0.2-5.2-1.5-5.2c-0.5,0-4.3,0.6-5.7,0.9
		c-0.4,0.1-0.5,0.3-0.5,0.5c0,0.2,0.2,0.4,0.5,0.4h0.8c2.7,0,2.9,3.4,2.9,7.4v1.4c0,2.2-0.1,4.4-0.2,5.4c-0.2,1.9-0.8,2.7-2.5,2.7
		c-0.4,0-0.6,0.2-0.6,0.5c0,0.2,0.2,0.4,0.5,0.4h10.2c0.3,0,0.5-0.2,0.5-0.4c0-0.2-0.2-0.5-0.6-0.5c-2.7,0-3.5-0.8-3.7-2.7
		c-0.1-0.9-0.2-2.3-0.2-6.3c0-3.9,1.5-7.1,3.4-7.1c1.4,0,1.4,1.5,1.4,2.1C181.3,22.2,183.3,21.8,183.3,19.8"/>
	<path class="st0" d="M164.4,19.3v-6.3c0-0.5-0.2-0.6-0.5-0.7c-2.4-0.6-4.5-0.8-6.5-0.8c-9,0-13.7,5.4-13.7,13.1
		c0,8.3,4.6,12.7,12.9,12.7c2.5,0,5.4-0.4,8-1c0.8-0.2,0.8-0.3,0.8-0.6c0-0.3-0.3-0.6-0.3-1.8c0-3.6,0.1-4.1,0.2-5.1
		c0.3-2,0.3-2.6,2.8-2.6c0.4,0,0.6-0.3,0.6-0.5c0-0.2-0.2-0.4-0.5-0.4h-10.1c-0.3,0-0.5,0.2-0.5,0.4c0,0.2,0.2,0.5,0.6,0.5
		c2.4,0,2.8,0.7,3,2.6c0.1,0.9,0.2,3.7,0.2,5.9c-1.4,0.8-2.7,1.1-5,1.1c-5.1,0-8.2-4.1-8.2-11.3c0-8.6,4.8-11.9,8.6-11.9
		c3.9,0,6.1,2.3,6.8,6.4c0.1,0.4,0.3,0.6,0.5,0.6S164.4,19.7,164.4,19.3"/>
	<path class="st0" d="M142.2,36.7c0-0.2-0.2-0.5-0.6-0.5c-1.8,0-2.4-0.6-2.4-2.5V22c0-2.8-1.6-4.9-4.3-4.9c-2.3,0-4,1.4-6.1,3.1
		l-1,0.8c0-0.7,0-1.6,0-2c0-1.1-0.5-1.6-1.2-1.6c-1.1,0-5.8,0.8-5.8,1.4c0,0.2,0.1,0.3,0.4,0.3h0.9c2.1,0,2.1,3.2,2.1,7.3v1.6
		c0,6.4,0,8.1-2.7,8.1c-0.4,0-0.6,0.2-0.6,0.5c0,0.2,0.2,0.4,0.5,0.4h9c0.3,0,0.5-0.2,0.5-0.4c0-0.2-0.2-0.5-0.6-0.5
		c-2,0-2.1-0.7-2.4-2.7c-0.1-0.9-0.2-3.2-0.2-5.4v-1.4c0-1.6,0-3.2,0-4.2c2.3-1.8,3.6-3,5.1-3c1.6,0,2.6,1.1,2.6,7.9
		c0,7.7-0.6,8.8-2.5,8.8c-0.4,0-0.6,0.2-0.6,0.5c0,0.2,0.2,0.4,0.5,0.4h8.8C142,37,142.2,36.9,142.2,36.7"/>
	<path class="st0" d="M113,28c0,1.7,0,5.2-0.2,6.3c-1,0.8-1.9,1-3.1,1c-1.9,0-3.2-1-3.2-2.9c0-3,2.4-4.3,5.7-4.3H113z M119.7,34.2
		c0-0.4-0.1-0.5-0.3-0.5c-0.5,0-0.5,1.6-1.7,1.6c-1.3,0-1.3-1.1-1.3-3.6c0-4.9,0.2-7.9,0.2-9.1c0-4-2.5-5.4-6.4-5.4
		c-4.1,0-6.8,1.5-6.8,3.9c0,1.3,0.8,2.3,2.4,2.3c0.3,0,0.7,0,1.1-0.1c-0.1-0.4-0.2-0.9-0.2-1.5c0-1.6,0.6-3.6,2.6-3.6
		c2.7,0,3.5,2.7,3.5,6.8V27c-0.5,0-1-0.1-1.5-0.1c-3.9,0-8.7,1.1-8.7,6c0,2.8,2.2,4.4,5.1,4.4c1.9,0,3.8-0.8,5.1-2.3
		c0.4,1,1.4,2.3,3.4,2.3C118.7,37.4,119.7,35.8,119.7,34.2"/>
	<path class="st0" d="M96.5,22.6c0,0.7-0.2,1.1-1.3,1.2l-6,0.4c0.4-3.2,1.7-6.1,4.4-6.1C95.5,18.2,96.5,19.6,96.5,22.6 M100.5,23.5
		c0-4.9-3.6-6.4-6.3-6.4c-6,0-9,4.7-9,10.7c0,6.4,3.4,9.5,8.3,9.5c5,0,7-3.6,7-5.6c0-0.2-0.1-0.4-0.3-0.4c-0.1,0-0.3,0.1-0.4,0.3
		c-1.2,2.5-2.7,3.2-5,3.2c-3.6,0-5.8-3.6-5.8-9.8h9.4C100,25.1,100.5,24.7,100.5,23.5"/>
	<path class="st0" d="M84.4,36.7c0-0.2-0.2-0.5-0.6-0.5c-1.9,0-2.1-0.6-2.4-2.5c-0.1-0.9-0.2-3.4-0.2-5.6V11.9
		c0-1.1-0.5-1.6-1.2-1.6c-0.9,0-3.9,0.9-5.3,1.3c-0.4,0.1-0.5,0.3-0.5,0.4c0,0.2,0.2,0.3,0.5,0.3h0.8c1.9,0,2.1,0.8,2.1,4.2v11.5
		c0,2.2-0.1,4.7-0.2,5.6c-0.2,1.9-0.7,2.5-2.5,2.5c-0.4,0-0.6,0.2-0.6,0.5c0,0.2,0.2,0.4,0.5,0.4h9C84.2,37,84.4,36.9,84.4,36.7"/>
	<path class="st0" d="M71.9,35.6c0.1-0.5,0.7-6.4,0.7-6.6c0-0.2-0.2-0.4-0.4-0.4c-0.3,0-0.4,0.1-0.5,0.6c-0.9,4.3-3.4,6.8-8.2,6.8
		c-5.1,0-8.2-4.1-8.2-11.3c0-8.6,4.8-11.9,8.6-11.9c3.9,0,6.2,2.4,6.7,6.4c0.1,0.4,0.3,0.7,0.5,0.7s0.4-0.2,0.4-0.6v-6.3
		c0-0.5-0.2-0.6-0.5-0.7c-2.4-0.6-4.5-0.8-6.5-0.8c-9,0-13.7,5.4-13.7,13.1c0,8.3,4.7,12.7,12.9,12.7c2.3,0,4.9-0.4,7.8-1.1
		C71.7,36.2,71.8,36,71.9,35.6"/>
	<path class="st0" d="M43.3,22.6c0,0.7-0.2,1.1-1.3,1.2l-6,0.4c0.4-3.2,1.7-6.1,4.4-6.1C42.4,18.2,43.3,19.6,43.3,22.6 M47.4,23.5
		c0-4.9-3.6-6.4-6.3-6.4c-6,0-9,4.7-9,10.7c0,6.4,3.4,9.5,8.3,9.5c5,0,7-3.6,7-5.6c0-0.2-0.1-0.4-0.3-0.4c-0.1,0-0.3,0.1-0.4,0.3
		c-1.2,2.5-2.7,3.2-5,3.2c-3.6,0-5.8-3.6-5.8-9.8h9.4C46.8,25.1,47.4,24.7,47.4,23.5"/>
	<path class="st0" d="M17.1,20.9l-3.7,10.9L8.9,17.4C8.4,15.7,8,14.6,8,13.9c0-0.8,0.5-1,1.9-1h1.8c2.2,0,3,0.8,3.5,2.1L17.1,20.9z
		 M35.6,12.5c0-0.2-0.2-0.5-0.7-0.5h-8.4c-0.5,0-0.7,0.2-0.7,0.4c0,0.3,0.3,0.5,0.7,0.5c2.1,0,2.9,0.5,2.9,1.5c0,0.3,0,0.6-0.1,0.8
		l-5.1,16.5l-4.1-14.4c-0.5-1.5-0.8-2.5-0.8-3.2c0-1,0.7-1.2,2.7-1.2c0.4,0,0.6-0.2,0.6-0.5c0-0.2-0.2-0.4-0.5-0.4H0.5
		c-0.3,0-0.5,0.2-0.5,0.4c0,0.2,0.2,0.5,0.6,0.5c2.2,0,2.8,1.4,4.1,4.9l6.7,18.7c0.2,0.7,0.5,0.9,0.8,0.9c0.3,0,0.6-0.4,0.9-1.1
		l4.8-13.4l4.5,13.6c0.2,0.7,0.5,0.9,0.8,0.9c0.3,0,0.6-0.4,0.8-1.1l6.7-19c1.4-4,2.6-4.4,4.4-4.4C35.5,13,35.6,12.8,35.6,12.5"/>
</g>
<path class="st0" d="M235,12.2c0,0.3,0,0.7,0,1v4.7c-0.7-0.5-1.5-0.8-2.5-0.8c-2.4,0-4,1.4-6.1,3.1l-1,0.8c0-0.7,0-1.6,0-2
	c0-1.1-0.5-1.6-1.2-1.6c-1.1,0-5.8,0.8-5.8,1.4c0,0.2,0.1,0.3,0.4,0.3h0.9c2.1,0,2.1,3.2,2.1,7.3v1.6c0,6.4,0,8.1-2.7,8.1
	c-0.4,0-0.6,0.2-0.6,0.5c0,0.2,0.2,0.4,0.5,0.4h9c0.3,0,0.5-0.2,0.5-0.4c0-0.2-0.2-0.5-0.6-0.5c-2,0-2.1-0.7-2.4-2.7
	c-0.1-0.9-0.2-3.2-0.2-5.4v-1.4c0-1.6,0-3.2,0-4.2c2.3-1.8,3.6-3,5.1-3c1.6,0,2.6,1.1,2.6,7.9c0,7.7-0.6,8.8-2.5,8.8
	c-0.4,0-0.6,0.2-0.6,0.5c0,0.2,0.2,0.4,0.5,0.4h8.8c0.3,0,0.5-0.2,0.5-0.4c0-0.2-0.2-0.5-0.6-0.5c-1.8,0-2.4-0.6-2.4-2.5V22
	c0,0,0,0,0-0.1v-8.2c0-0.3,0.1-0.9,0.3-1.5c1.5-3,5.7-8.9,10.6-7.3c0,0,0.1,0,0.1,0c0.1,0,0.2,0.1,0.2,0.1c-0.2,0.1-0.2,0.1-0.3,0.2
	c-3.7,2.1-8,4.9-10,9.8c8.6,3.9,14.3-0.7,17.2-13.9C241-2.1,234.4,1.6,235,12.2z"/>
</svg>
