<svg id="Layer_1" data-name="Layer 1" xmlns="http://www.w3.org/2000/svg" xmlns:xlink="http://www.w3.org/1999/xlink" viewBox="0 0 254.94 37.47"><defs><style>.cls-1{fill:none;}.cls-2{clip-path:url(#clip-path);}.cls-3{fill:#006321;}</style><clipPath id="clip-path" transform="translate(-555.84 -365.97)"><rect class="cls-1" x="555.84" y="363.86" width="254.94" height="39.59"/></clipPath></defs><g class="cls-2"><path class="cls-3" d="M810.77,367.12q-20.84-4.89-19.95,11.05c0,.34,0,.69,0,1.05v4.68a4.19,4.19,0,0,0-2.53-.79c-2.35,0-4,1.37-6.14,3.13l-1,.82c0-.69,0-1.57,0-2,0-1.14-.52-1.6-1.24-1.6-1.14,0-5.84.75-5.84,1.4,0,.17.1.33.42.33h.92c2.09,0,2.12,3.2,2.12,7.28v1.57c0,6.4,0,8.06-2.71,8.09-.39,0-.59.23-.59.46s.17.39.49.39h9c.33,0,.49-.19.49-.39s-.2-.46-.62-.46c-2,0-2.09-.72-2.35-2.68a53.59,53.59,0,0,1-.2-5.41v-1.41c0-1.56,0-3.16,0-4.24,2.31-1.83,3.62-3,5.09-3,1.63,0,2.64,1.08,2.64,7.94,0,7.67-.58,8.84-2.51,8.84-.39,0-.59.23-.59.46s.17.39.49.39h8.85c.33,0,.49-.19.49-.39s-.2-.46-.59-.46c-1.76,0-2.38-.55-2.38-2.51V388s0,0,0-.06v-8.8a.23.23,0,0,0,0-.11c1-2.52,5.66-10,11.09-8a2.65,2.65,0,0,1,.4,0c-3.79,2.09-8.38,5-10.51,10q12.84,5.89,17.24-13.89" transform="translate(-555.84 -365.97)"/><path class="cls-3" d="M768.55,388.59c0,.72-.19,1.14-1.27,1.21l-6,.42c.39-3.2,1.7-6.07,4.44-6.07,1.9,0,2.84,1.44,2.84,4.44m4.08.88c0-4.89-3.56-6.36-6.27-6.36-6,0-9,4.66-9,10.71,0,6.39,3.42,9.53,8.29,9.53s7-3.56,7-5.58c0-.23-.06-.4-.26-.4a.41.41,0,0,0-.36.26c-1.21,2.52-2.74,3.2-5,3.2-3.59,0-5.84-3.56-5.84-9.76h9.43c1.4,0,2-.42,2-1.6" transform="translate(-555.84 -365.97)"/><path class="cls-3" d="M751,388.59c0,.72-.2,1.14-1.27,1.21l-6,.42c.39-3.2,1.7-6.07,4.44-6.07,1.89,0,2.84,1.44,2.84,4.44m4.08.88c0-4.89-3.56-6.36-6.27-6.36-6,0-9,4.66-9,10.71,0,6.39,3.43,9.53,8.3,9.53s6.95-3.56,6.95-5.58c0-.23-.07-.4-.26-.4a.41.41,0,0,0-.36.26c-1.21,2.52-2.74,3.2-5,3.2-3.59,0-5.85-3.56-5.85-9.76h9.44c1.4,0,2-.42,2-1.6" transform="translate(-555.84 -365.97)"/><path class="cls-3" d="M739.1,385.75c0-1.83-1.14-2.64-2.8-2.64s-3.79,1-4.84,5.55c0-2.75-.22-5.16-1.46-5.16a47.64,47.64,0,0,0-5.68.91c-.36.1-.49.3-.49.46s.16.36.49.36h.78c2.71,0,2.9,3.36,2.9,7.44v1.41c0,2.18-.13,4.44-.19,5.35-.16,1.93-.82,2.74-2.52,2.74-.39,0-.58.23-.58.46s.16.39.49.39h10.18c.33,0,.49-.2.49-.39s-.19-.46-.59-.46c-2.67,0-3.46-.78-3.72-2.74a59.35,59.35,0,0,1-.19-6.27c0-3.85,1.53-7.08,3.36-7.08,1.4,0,1.44,1.5,1.44,2.09,1,0,2.93-.43,2.93-2.42" transform="translate(-555.84 -365.97)"/><path class="cls-3" d="M720.27,385.29V379a.65.65,0,0,0-.52-.69,28.44,28.44,0,0,0-6.49-.75c-9,0-13.75,5.35-13.75,13.09,0,8.29,4.64,12.67,12.93,12.67a35.81,35.81,0,0,0,8-1c.78-.2.84-.33.84-.56a5.9,5.9,0,0,1-.32-1.79,31,31,0,0,1,.19-5.06c.26-2,.3-2.61,2.78-2.61a.55.55,0,0,0,.62-.49c0-.2-.16-.4-.49-.4H714a.43.43,0,0,0-.49.4.55.55,0,0,0,.62.49c2.42,0,2.84.68,3,2.61.06.91.19,3.69.19,5.94a8.65,8.65,0,0,1-5,1.08c-5.09,0-8.23-4.15-8.23-11.3,0-8.55,4.77-11.88,8.62-11.88s6.11,2.35,6.76,6.43c.06.42.26.59.46.59s.35-.13.35-.53" transform="translate(-555.84 -365.97)"/><path class="cls-3" d="M698,402.63c0-.23-.2-.46-.59-.46-1.76,0-2.38-.55-2.38-2.51V388c0-2.8-1.6-4.89-4.31-4.89-2.35,0-4,1.37-6.14,3.13l-1,.82c0-.69,0-1.57,0-2,0-1.14-.53-1.6-1.24-1.6-1.15,0-5.85.75-5.85,1.4,0,.17.1.33.43.33h.91c2.09,0,2.12,3.2,2.12,7.28v1.57c0,6.39,0,8.06-2.71,8.09-.39,0-.59.23-.59.46s.17.39.49.39h9c.33,0,.49-.2.49-.39s-.19-.46-.62-.46c-2,0-2.09-.72-2.35-2.68-.13-.91-.19-3.23-.19-5.41v-1.41c0-1.57,0-3.16,0-4.24,2.32-1.83,3.62-3,5.09-3,1.63,0,2.64,1.08,2.64,7.93,0,7.68-.58,8.85-2.51,8.85-.39,0-.59.23-.59.46s.17.39.49.39h8.85c.33,0,.49-.2.49-.39" transform="translate(-555.84 -365.97)"/><path class="cls-3" d="M668.79,394c0,1.73,0,5.19-.16,6.26a4.78,4.78,0,0,1-3.07,1c-1.92,0-3.16-1-3.16-2.94,0-3,2.38-4.3,5.68-4.3Zm6.76,6.26c0-.36-.06-.52-.29-.52-.46,0-.49,1.57-1.7,1.57s-1.31-1.14-1.31-3.63c0-4.86.2-7.93.2-9.1,0-4-2.51-5.42-6.37-5.42-4.11,0-6.79,1.53-6.79,3.85a2.15,2.15,0,0,0,2.39,2.28,4.8,4.8,0,0,0,1.11-.13,6.1,6.1,0,0,1-.17-1.46c0-1.6.56-3.56,2.65-3.56,2.71,0,3.52,2.67,3.52,6.75V393c-.49,0-1-.07-1.5-.07-3.95,0-8.71,1.08-8.71,6,0,2.81,2.15,4.44,5.06,4.44a7.12,7.12,0,0,0,5.12-2.26,3.48,3.48,0,0,0,3.4,2.26,3.08,3.08,0,0,0,3.39-3.14" transform="translate(-555.84 -365.97)"/><path class="cls-3" d="M652.3,388.59c0,.72-.19,1.14-1.27,1.21l-6,.42c.39-3.2,1.7-6.07,4.44-6.07,1.9,0,2.84,1.44,2.84,4.44m4.08.88c0-4.89-3.56-6.36-6.27-6.36-6,0-9,4.66-9,10.71,0,6.39,3.42,9.53,8.29,9.53s7-3.56,7-5.58c0-.23-.06-.4-.26-.4a.41.41,0,0,0-.36.26c-1.21,2.52-2.74,3.2-5,3.2-3.59,0-5.84-3.56-5.84-9.76h9.43c1.4,0,2-.42,2-1.6" transform="translate(-555.84 -365.97)"/><path class="cls-3" d="M640.19,402.63c0-.23-.2-.46-.59-.46-1.92,0-2.12-.55-2.38-2.51-.13-.92-.16-3.4-.16-5.58v-16.2c0-1.14-.53-1.6-1.24-1.6a40.87,40.87,0,0,0-5.29,1.31c-.36.1-.52.26-.52.42s.19.3.52.3h.81c1.9,0,2.13.85,2.13,4.24v11.53c0,2.18-.13,4.66-.2,5.58-.16,1.92-.69,2.51-2.51,2.51-.4,0-.59.23-.59.46s.16.39.49.39h9c.33,0,.49-.2.49-.39" transform="translate(-555.84 -365.97)"/><path class="cls-3" d="M627.74,401.55c.06-.49.65-6.4.65-6.59a.36.36,0,0,0-.36-.36c-.26,0-.42.13-.52.55-.92,4.34-3.4,6.79-8.16,6.79-5.1,0-8.23-4.11-8.23-11.26,0-8.55,4.77-11.88,8.62-11.88s6.17,2.35,6.72,6.43c.07.42.26.65.46.65s.36-.19.36-.59V379a.62.62,0,0,0-.49-.69,28.47,28.47,0,0,0-6.5-.75c-9,0-13.74,5.35-13.74,13.09,0,8.26,4.7,12.67,12.93,12.67a31.12,31.12,0,0,0,7.8-1.11c.29-.07.39-.23.46-.69" transform="translate(-555.84 -365.97)"/><path class="cls-3" d="M599.18,388.59c0,.72-.2,1.14-1.28,1.21l-6,.42c.39-3.2,1.69-6.07,4.44-6.07,1.89,0,2.84,1.44,2.84,4.44m4.08.88c0-4.89-3.56-6.36-6.27-6.36-6,0-9,4.66-9,10.71,0,6.39,3.43,9.53,8.29,9.53s7-3.56,7-5.58c0-.23-.07-.4-.26-.4a.41.41,0,0,0-.36.26c-1.21,2.52-2.74,3.2-5,3.2-3.6,0-5.85-3.56-5.85-9.76h9.44c1.4,0,2-.42,2-1.6" transform="translate(-555.84 -365.97)"/><path class="cls-3" d="M573,386.83l-3.72,10.87-4.5-14.36a15.82,15.82,0,0,1-.88-3.43c0-.82.52-1,1.86-1h1.83c2.18,0,3,.78,3.49,2.12Zm18.51-8.33c0-.22-.19-.45-.68-.45h-8.36c-.46,0-.65.19-.65.42s.29.46.72.46c2.12,0,2.87.52,2.87,1.47a2.67,2.67,0,0,1-.13.85l-5.06,16.45-4.11-14.36a13.79,13.79,0,0,1-.75-3.24c0-1,.68-1.2,2.67-1.2.39,0,.59-.23.59-.46s-.16-.39-.49-.39H556.33c-.33,0-.49.19-.49.39s.19.46.62.46c2.22,0,2.8,1.37,4.08,4.89l6.72,18.71c.23.65.49.95.75.95s.62-.4.88-1.11l4.84-13.42,4.5,13.58c.2.65.52.95.78.95s.59-.4.85-1.11l6.66-19c1.41-4,2.58-4.38,4.41-4.41.36,0,.55-.2.55-.43" transform="translate(-555.84 -365.97)"/></g></svg>