<?xml version="1.0" encoding="utf-8"?>
<!-- Generator: Adobe Illustrator 25.3.1, SVG Export Plug-In . SVG Version: 6.00 Build 0)  -->
<svg version="1.1" id="Lager_1" xmlns="http://www.w3.org/2000/svg" xmlns:xlink="http://www.w3.org/1999/xlink" x="0px" y="0px"
	 viewBox="0 0 1162.8 344.5" style="enable-background:new 0 0 1162.8 344.5;" xml:space="preserve">
<style type="text/css">
	.st0{fill:#FFFFFF;}
	.st1{fill:#A6A6A6;}
	.st2{fill:url(#SVGID_1_);}
</style>
<g transform="scale(4.00216 4.0011)">
	<path class="st0" d="M288.6,75.9c0,4.6-3.7,8.2-8.2,8.2c0,0,0,0,0,0H10.2c-4.6,0-8.3-3.7-8.3-8.2V10.2c0-4.6,3.7-8.3,8.3-8.3h270.2
		c4.6,0,8.3,3.7,8.3,8.3c0,0,0,0,0,0L288.6,75.9L288.6,75.9z"/>
	<path class="st1" d="M280.4,86.1H10.2C4.6,86.1,0,81.6,0,75.9V10.2C0,4.6,4.6,0,10.2,0h270.2c5.6,0,10.2,4.6,10.2,10.2v65.8
		C290.5,81.6,286,86.1,280.4,86.1L280.4,86.1z"/>
	<path d="M288.6,75.9c0,4.6-3.7,8.2-8.2,8.2c0,0,0,0,0,0H10.2c-4.6,0-8.3-3.7-8.3-8.2V10.2c0-4.6,3.7-8.3,8.3-8.3h270.2
		c4.6,0,8.3,3.7,8.3,8.3c0,0,0,0,0,0L288.6,75.9L288.6,75.9z"/>
	<path class="st0" d="M64.9,42.6c-0.1-6.9,5.7-10.3,5.9-10.5c-3.3-4.7-8.3-5.4-10.1-5.4c-4.2-0.4-8.3,2.5-10.5,2.5
		c-2.2,0-5.5-2.5-9.1-2.4c-4.6,0.1-8.9,2.7-11.3,6.9c-4.9,8.4-1.2,20.9,3.4,27.7c2.3,3.3,5.1,7.1,8.6,6.9c3.5-0.1,4.8-2.2,9-2.2
		c4.2,0,5.4,2.2,9.1,2.1c3.8-0.1,6.1-3.4,8.4-6.7c2.7-3.8,3.8-7.6,3.8-7.8C72.2,53.7,64.9,50.9,64.9,42.6L64.9,42.6z M58,22.2
		c1.9-2.4,3.2-5.6,2.8-8.8c-2.7,0.1-6.1,1.9-8.1,4.2c-1.7,2-3.3,5.4-2.9,8.5C52.9,26.3,56,24.5,58,22.2z"/>
	
		<linearGradient id="SVGID_1_" gradientUnits="userSpaceOnUse" x1="-47.8323" y1="65.1649" x2="-47.8323" y2="142.781" gradientTransform="matrix(16.0174 0 0 -16.0088 979.2422 1129.5497)">
		<stop  offset="0" style="stop-color:#1A1A1A;stop-opacity:0.1"/>
		<stop  offset="0.123" style="stop-color:#212121;stop-opacity:0.151"/>
		<stop  offset="0.308" style="stop-color:#353535;stop-opacity:0.227"/>
		<stop  offset="0.532" style="stop-color:#575757;stop-opacity:0.318"/>
		<stop  offset="0.783" style="stop-color:#858585;stop-opacity:0.421"/>
		<stop  offset="1" style="stop-color:#B3B3B3;stop-opacity:0.51"/>
	</linearGradient>
	<path class="st2" d="M280.4,0H135.6l56.7,86.1h88c5.6,0,10.2-4.6,10.2-10.2V10.2C290.5,4.6,286,0,280.4,0z"/>
	<g>
		<path class="st0" d="M115.6,67.8h-4.9l-2.7-8.4h-9.3l-2.6,8.4h-4.8l9.2-28.7h5.7C106.3,39.2,115.6,67.8,115.6,67.8z M107.2,55.9
			l-2.4-7.5c-0.3-0.8-0.7-2.6-1.4-5.4h-0.1c-0.3,1.2-0.7,3-1.4,5.4l-2.4,7.5H107.2z M139.2,57.3c0,3.5-1,6.3-2.9,8.3
			c-1.7,1.8-3.8,2.7-6.4,2.7c-2.7,0-4.7-1-5.9-2.9v10.8h-4.6V54c0-2.2-0.1-4.5-0.2-6.8h4l0.3,3.3h0.1c1.5-2.5,3.9-3.7,7-3.7
			c2.4,0,4.5,1,6.1,2.9C138.4,51.6,139.2,54.1,139.2,57.3z M134.6,57.4c0-2-0.5-3.7-1.4-5c-1-1.4-2.3-2-4-2c-1.1,0-2.2,0.4-3.1,1.1
			c-0.9,0.8-1.5,1.7-1.8,3c-0.1,0.5-0.2,0.9-0.2,1.4v3.4c0,1.5,0.5,2.8,1.4,3.8c0.9,1,2.1,1.6,3.6,1.6c1.7,0,3.1-0.7,4-2
			C134.1,61.4,134.6,59.6,134.6,57.4z M163,57.3c0,3.5-1,6.3-2.9,8.3c-1.7,1.8-3.8,2.7-6.4,2.7c-2.7,0-4.7-1-5.9-2.9v10.8h-4.6V54
			c0-2.2-0.1-4.5-0.2-6.8h4l0.3,3.3h0.1c1.5-2.5,3.9-3.7,7-3.7c2.4,0,4.5,1,6.1,2.9C162.2,51.6,163,54.1,163,57.3L163,57.3z
			 M158.3,57.4c0-2-0.5-3.7-1.4-5c-1-1.4-2.3-2-4-2c-1.1,0-2.2,0.4-3.1,1.1c-0.9,0.8-1.5,1.7-1.8,3c-0.1,0.6-0.2,1-0.2,1.4v3.4
			c0,1.5,0.5,2.8,1.4,3.8c0.9,1,2.1,1.6,3.6,1.6c1.7,0,3.1-0.7,4-2C157.8,61.4,158.3,59.6,158.3,57.4z M189.6,59.8
			c0,2.4-0.9,4.4-2.5,6c-1.9,1.7-4.5,2.5-7.8,2.5c-3.1,0-5.6-0.6-7.4-1.8l1.1-3.8c2,1.2,4.2,1.8,6.6,1.8c1.7,0,3.1-0.4,4-1.2
			c1-0.8,1.4-1.8,1.4-3.1c0-1.2-0.4-2.1-1.2-2.9c-0.8-0.8-2.1-1.5-4-2.2c-5-1.9-7.5-4.6-7.5-8.2c0-2.4,0.9-4.3,2.7-5.8
			c1.8-1.5,4.1-2.3,7-2.3c2.6,0,4.8,0.5,6.5,1.4l-1.2,3.7c-1.6-0.9-3.5-1.3-5.5-1.3c-1.6,0-2.9,0.4-3.8,1.2
			c-0.8,0.7-1.2,1.6-1.2,2.6c0,1.1,0.4,2.1,1.3,2.8c0.8,0.7,2.2,1.4,4.2,2.2c2.5,1,4.3,2.2,5.4,3.5C189,56.2,189.6,57.8,189.6,59.8
			L189.6,59.8z M204.8,50.6h-5.1v10c0,2.6,0.9,3.8,2.7,3.8c0.8,0,1.5-0.1,2-0.2l0.1,3.5c-0.9,0.3-2.1,0.5-3.6,0.5
			c-1.8,0-3.2-0.6-4.3-1.7c-1-1.1-1.5-3-1.5-5.6V50.6h-3v-3.4h3v-3.8l4.5-1.4v5.1h5.1L204.8,50.6L204.8,50.6z M227.6,57.3
			c0,3.2-0.9,5.8-2.7,7.8c-1.9,2.1-4.4,3.1-7.6,3.1c-3,0-5.5-1-7.3-3c-1.8-2-2.7-4.5-2.7-7.6c0-3.2,0.9-5.8,2.8-7.9
			c1.9-2,4.4-3.1,7.5-3.1c3,0,5.5,1,7.3,3C226.7,51.7,227.6,54.2,227.6,57.3z M222.8,57.4c0-1.9-0.4-3.5-1.2-4.9
			c-1-1.6-2.3-2.5-4.1-2.5c-1.8,0-3.2,0.8-4.2,2.5c-0.8,1.4-1.2,3-1.2,5c0,1.9,0.4,3.5,1.2,4.9c1,1.6,2.4,2.5,4.2,2.5
			c1.8,0,3.1-0.8,4.1-2.5C222.4,61,222.8,59.3,222.8,57.4L222.8,57.4z M242.5,51.2c-0.5-0.1-1-0.1-1.4-0.1c-1.6,0-2.9,0.6-3.7,1.8
			c-0.8,1.1-1.1,2.4-1.1,4.1v10.8h-4.6V53.7c0-2.2,0-4.3-0.1-6.5h4l0.2,4h0.1c0.5-1.4,1.2-2.5,2.3-3.3c1-0.7,2.1-1.1,3.3-1.1
			c0.4,0,0.8,0,1.1,0.1L242.5,51.2L242.5,51.2z M263,56.5c0,0.7,0,1.4-0.2,2.1h-13.8c0.1,2,0.7,3.6,2,4.7c1.2,1,2.7,1.4,4.5,1.4
			c2,0,3.9-0.3,5.6-1l0.7,3.2c-2,0.9-4.3,1.3-6.9,1.3c-3.2,0-5.7-0.9-7.5-2.8c-1.8-1.9-2.7-4.4-2.7-7.6c0-3.1,0.9-5.7,2.6-7.8
			c1.8-2.2,4.2-3.3,7.2-3.3c3,0,5.2,1.1,6.8,3.3C262.4,51.8,263,54,263,56.5z M258.7,55.3c0-1.4-0.3-2.5-0.9-3.5
			c-0.8-1.3-2-1.9-3.7-1.9c-1.5,0-2.7,0.6-3.7,1.9c-0.8,1-1.2,2.2-1.4,3.6L258.7,55.3L258.7,55.3z"/>
	</g>
</g>
<g>
	<path class="st0" d="M373.6,61h8.9v24.4h29.6V61h9v57.7h-9V93.2h-29.6v25.5h-8.9V61z"/>
	<path class="st0" d="M439,117.8c-2.1-1.1-3.7-2.6-4.9-4.5c-1.2-1.9-1.8-4.1-1.8-6.6v-0.1c0-3.7,1.4-6.6,4.1-8.7
		c2.7-2.1,6.6-3.4,11.5-3.7l15.9-1v6.1l-14.7,0.9c-2.6,0.2-4.6,0.8-6,1.9c-1.4,1.1-2.1,2.5-2.1,4.3v0.1c0,1.8,0.7,3.3,2.1,4.4
		c1.4,1.1,3.3,1.6,5.6,1.6c2,0,3.8-0.4,5.5-1.2c1.6-0.8,2.9-2,3.8-3.4c0.9-1.5,1.4-3.1,1.4-4.9V90.4c0-2.3-0.7-4.1-2.2-5.5
		c-1.4-1.3-3.5-2-6.2-2c-2.5,0-4.5,0.5-6,1.6c-1.5,1.1-2.4,2.4-2.8,4.1l-0.1,0.4H434l0-0.4c0.2-2.4,1-4.6,2.4-6.5
		c1.4-1.9,3.4-3.5,5.9-4.6c2.5-1.1,5.5-1.7,8.9-1.7c3.4,0,6.4,0.6,8.9,1.7c2.5,1.1,4.4,2.8,5.8,4.8c1.4,2.1,2.1,4.5,2.1,7.3v29h-8.7
		v-6.6h-0.2c-0.8,1.5-1.9,2.8-3.2,3.9c-1.3,1.1-2.8,2-4.4,2.6c-1.6,0.6-3.4,0.9-5.3,0.9C443.6,119.4,441.1,118.9,439,117.8z
		 M440,68.9c-0.9-0.9-1.4-2-1.4-3.3s0.5-2.4,1.4-3.3c0.9-0.9,2-1.3,3.3-1.3c1.3,0,2.4,0.4,3.3,1.3c0.9,0.9,1.3,2,1.3,3.3
		s-0.4,2.4-1.3,3.3c-0.9,0.9-2,1.3-3.3,1.3C442,70.2,440.9,69.8,440,68.9z M455.8,68.9c-0.9-0.9-1.4-2-1.4-3.3s0.5-2.4,1.4-3.3
		c0.9-0.9,2-1.3,3.3-1.3c1.3,0,2.4,0.4,3.3,1.3c0.9,0.9,1.3,2,1.3,3.3s-0.4,2.4-1.3,3.3c-0.9,0.9-2,1.3-3.3,1.3
		C457.8,70.2,456.7,69.8,455.8,68.9z"/>
	<path class="st0" d="M479.7,76.7h8.7v6.5h0.2c0.9-2.2,2.4-4,4.4-5.3c2.1-1.3,4.4-2,7.2-2c1.9,0,3.7,0.3,5.2,1
		c1.6,0.6,2.9,1.6,4,2.8c1.1,1.2,1.9,2.7,2.5,4.5h0.2c0.7-1.7,1.7-3.2,3-4.4c1.3-1.2,2.8-2.2,4.5-2.9c1.7-0.7,3.6-1,5.6-1
		c2.8,0,5.2,0.6,7.2,1.7c2.1,1.2,3.6,2.8,4.8,4.9c1.1,2.1,1.7,4.5,1.7,7.3v28.9h-8.7V91.9c0-2.7-0.7-4.8-2.1-6.3
		c-1.4-1.5-3.4-2.3-6-2.3c-1.7,0-3.2,0.4-4.5,1.2c-1.3,0.8-2.3,1.9-3,3.2c-0.7,1.4-1.1,3-1.1,4.7v26.3h-8.5V91.2
		c0-2.4-0.7-4.4-2.1-5.8c-1.4-1.4-3.4-2.1-5.8-2.1c-1.7,0-3.2,0.4-4.5,1.2c-1.3,0.8-2.4,1.9-3.1,3.3c-0.7,1.4-1.1,3-1.1,4.9v26h-8.7
		V76.7z"/>
	<path class="st0" d="M555.8,116.7c-2-1.9-3.1-4.9-3.1-9.1V83.5h-6v-6.9h6V65.7h8.9v10.9h7.9v6.9h-7.9v23.6c0,2.1,0.5,3.6,1.4,4.4
		c0.9,0.8,2.3,1.2,4.2,1.2c0.5,0,0.9,0,1.3-0.1c0.4,0,0.7-0.1,1.1-0.1v6.7c-0.5,0.1-1.1,0.2-1.9,0.2c-0.8,0.1-1.6,0.1-2.5,0.1
		C561,119.5,557.9,118.6,555.8,116.7z"/>
	<path class="st0" d="M584.2,117.8c-2.1-1.1-3.7-2.6-4.9-4.5c-1.2-1.9-1.8-4.1-1.8-6.6v-0.1c0-3.7,1.4-6.6,4.1-8.7
		c2.7-2.1,6.6-3.4,11.5-3.7l15.9-1v6.1l-14.7,0.9c-2.6,0.2-4.6,0.8-6,1.9c-1.4,1.1-2.1,2.5-2.1,4.3v0.1c0,1.8,0.7,3.3,2.1,4.4
		c1.4,1.1,3.3,1.6,5.6,1.6c2,0,3.8-0.4,5.5-1.2c1.6-0.8,2.9-2,3.8-3.4c0.9-1.5,1.4-3.1,1.4-4.9V90.4c0-2.3-0.7-4.1-2.2-5.5
		s-3.5-2-6.2-2c-2.5,0-4.5,0.5-6,1.6c-1.5,1.1-2.4,2.4-2.8,4.1l-0.1,0.4h-8.2l0-0.4c0.2-2.4,1-4.6,2.4-6.5c1.4-1.9,3.4-3.5,5.9-4.6
		c2.5-1.1,5.5-1.7,8.9-1.7s6.4,0.6,8.9,1.7c2.5,1.1,4.4,2.8,5.8,4.8c1.4,2.1,2.1,4.5,2.1,7.3v29h-8.7v-6.6h-0.2
		c-0.8,1.5-1.9,2.8-3.2,3.9c-1.3,1.1-2.8,2-4.4,2.6c-1.6,0.6-3.4,0.9-5.3,0.9C588.7,119.4,586.3,118.9,584.2,117.8z"/>
	<path class="st0" d="M641.4,68.7c-1-1-1.5-2.1-1.5-3.5c0-1.4,0.5-2.6,1.5-3.6c1-1,2.2-1.4,3.6-1.4c1.4,0,2.6,0.5,3.6,1.4
		c1,1,1.5,2.1,1.5,3.6c0,1.4-0.5,2.5-1.5,3.5c-1,1-2.2,1.5-3.6,1.5C643.5,70.2,642.3,69.7,641.4,68.7z M640.6,76.7h8.7v42h-8.7V76.7
		z"/>
</g>
</svg>
