<svg id="Lager_1" data-name="Lager 1" xmlns="http://www.w3.org/2000/svg" viewBox="0 0 45 45"><defs><style>.cls-1{fill:#006321;}</style></defs><path id="Rectangle_6" data-name="Rectangle 6" class="cls-1" d="M14,11.89,33.11,31a1.51,1.51,0,0,1,0,2.12h0a1.51,1.51,0,0,1-2.12,0h0L11.89,14a1.51,1.51,0,0,1,0-2.12h0A1.51,1.51,0,0,1,14,11.89Z"/><path id="Rectangle_8" data-name="Rectangle 8" class="cls-1" d="M11.89,31,31,11.89a1.51,1.51,0,0,1,2.12,0h0a1.51,1.51,0,0,1,0,2.12L14,33.11a1.51,1.51,0,0,1-2.12,0h0a1.51,1.51,0,0,1,0-2.12Z"/></svg>