<svg id="Lager_1" data-name="Lager 1" xmlns="http://www.w3.org/2000/svg" viewBox="0 0 230 230"><defs><style>.cls-1{fill:#395165;}</style></defs><g id="Icon-04"><path id="Path_70" data-name="Path 70" class="cls-1" d="M230,115.51c-.14,13.76-.2,27.93-.46,42.13A99.36,99.36,0,0,1,225,187.33a57.8,57.8,0,0,1-33.7,35.88,76.62,76.62,0,0,1-26.51,6c-23.4,1.23-46.85.69-70.26.69-8.36,0-16.72-.11-25.07-.41a88.14,88.14,0,0,1-31.35-6.17A57.31,57.31,0,0,1,7.2,192.68,71.92,71.92,0,0,1,.73,164.59C.25,142.4.13,120.2,0,98c0-9.45.1-18.9.4-28.34a88.44,88.44,0,0,1,6.14-31.5,57.34,57.34,0,0,1,31-31.12A75.51,75.51,0,0,1,67.07.58C90.2.17,113.33,0,136.47,0c10.2,0,20.4.22,30.57.88A70.19,70.19,0,0,1,200,10.71,59.13,59.13,0,0,1,224.18,41a82.19,82.19,0,0,1,5.21,28.27C229.6,84.48,229.78,99.78,230,115.51Zm-20.53.94V93.22A219,219,0,0,0,207.27,57,43.46,43.46,0,0,0,195.1,32.86a37.38,37.38,0,0,0-20.7-10,212,212,0,0,0-33.29-2.52c-15.91-.15-31.82-.09-47.73,0A215.19,215.19,0,0,0,57,22.48,43.8,43.8,0,0,0,33.58,34,36.83,36.83,0,0,0,23,54.73a189.36,189.36,0,0,0-2.57,30.73c-.18,11.9-.15,23.81-.09,35.71,0,11.15.32,22.29.35,33.43a82.85,82.85,0,0,0,3.88,26,36.84,36.84,0,0,0,27.66,25.62,127.58,127.58,0,0,0,27.82,3.07c19.83.3,39.66.24,59.5.18a188.9,188.9,0,0,0,33.84-2.3,39.3,39.3,0,0,0,33.47-32.71,219.5,219.5,0,0,0,2.56-33.58c.14-8.17,0-16.27,0-24.4Z"/><path id="Path_71" data-name="Path 71" class="cls-1" d="M114.31,174a59.17,59.17,0,1,1,59.29-59V115a59.1,59.1,0,0,1-59.24,59Zm.06-21a38.38,38.38,0,1,0-38.72-38.07A38.38,38.38,0,0,0,114.37,153Z"/><path id="Path_72" data-name="Path 72" class="cls-1" d="M176.21,67.07a14,14,0,1,1,13.93-14A14.73,14.73,0,0,1,176.21,67.07Z"/></g></svg>