<svg id="Lager_1" data-name="Lager 1" xmlns="http://www.w3.org/2000/svg" viewBox="0 0 45 45"><defs><style>.cls-1{fill:#006321;}</style></defs><g id="Group_68" data-name="Group 68"><path id="Rectangle_6" data-name="Rectangle 6" class="cls-1" d="M9,13H36a1.5,1.5,0,0,1,1.5,1.5h0A1.5,1.5,0,0,1,36,16H9a1.5,1.5,0,0,1-1.5-1.5h0A1.5,1.5,0,0,1,9,13Z"/><path id="Rectangle_7" data-name="Rectangle 7" class="cls-1" d="M14,21H36a1.5,1.5,0,0,1,1.5,1.5h0A1.5,1.5,0,0,1,36,24H14a1.5,1.5,0,0,1-1.5-1.5h0A1.5,1.5,0,0,1,14,21Z"/><path id="Rectangle_8" data-name="Rectangle 8" class="cls-1" d="M9,29H36a1.5,1.5,0,0,1,1.5,1.5h0A1.5,1.5,0,0,1,36,32H9a1.5,1.5,0,0,1-1.5-1.5h0A1.5,1.5,0,0,1,9,29Z"/></g></svg>